<svg xmlns="http://www.w3.org/2000/svg" xmlns:xlink="http://www.w3.org/1999/xlink" width="59.004" height="14.238" viewBox="0 0 59.004 14.238"><defs><style>.a{fill:url(#a);}</style><linearGradient id="a" y1="0.5" x2="1" y2="0.5" gradientUnits="objectBoundingBox"><stop offset="0" stop-color="#742bd4"/><stop offset="0.163" stop-color="#7028cd"/><stop offset="0.257"/><stop offset="1"/></linearGradient></defs><g transform="translate(-154 -22.996)"><path class="a" d="M-18.95-5.664q0,5.9-5.322,5.9-5.1,0-5.1-5.674V-14h1.641v8.457q0,4.307,3.633,4.307,3.506,0,3.506-4.16V-14h1.641ZM-8.188,0h-7.266V-14h1.641v12.52h5.625ZM1.782-4.6H-5.278a3.74,3.74,0,0,0,.9,2.578,3.1,3.1,0,0,0,2.363.908A4.913,4.913,0,0,0,1.089-2.227v1.5A5.8,5.8,0,0,1-2.4.234a4.227,4.227,0,0,1-3.33-1.362A5.576,5.576,0,0,1-6.938-4.961a5.468,5.468,0,0,1,1.323-3.8,4.243,4.243,0,0,1,3.286-1.47A3.76,3.76,0,0,1,.708-8.965,5.293,5.293,0,0,1,1.782-5.439ZM.142-5.957A3.259,3.259,0,0,0-.527-8.115a2.279,2.279,0,0,0-1.831-.771,2.587,2.587,0,0,0-1.924.811,3.678,3.678,0,0,0-.977,2.119ZM11.362,0h-1.6V-1.562H9.722A3.353,3.353,0,0,1,6.646.234,3.288,3.288,0,0,1,4.307-.557a2.741,2.741,0,0,1-.845-2.1q0-2.8,3.3-3.262l3-.42q0-2.549-2.061-2.549a4.923,4.923,0,0,0-3.262,1.23V-9.3a6.2,6.2,0,0,1,3.4-.937q3.525,0,3.525,3.73Zm-1.6-5.059-2.412.332a3.916,3.916,0,0,0-1.68.552,1.591,1.591,0,0,0-.566,1.4,1.526,1.526,0,0,0,.522,1.2,2.019,2.019,0,0,0,1.392.464,2.571,2.571,0,0,0,1.968-.835,2.983,2.983,0,0,0,.776-2.114Zm9.834-3.32A1.958,1.958,0,0,0,18.384-8.7a2.044,2.044,0,0,0-1.714.967A4.47,4.47,0,0,0,15.981-5.1V0h-1.6V-10h1.6v2.061h.039a3.492,3.492,0,0,1,1.045-1.646,2.383,2.383,0,0,1,1.572-.591,2.615,2.615,0,0,1,.957.137ZM29.634,0h-1.6V-5.7q0-3.184-2.324-3.184a2.521,2.521,0,0,0-1.987.9,3.348,3.348,0,0,0-.786,2.28V0h-1.6V-10h1.6v1.66h.039a3.609,3.609,0,0,1,3.281-1.895,3.059,3.059,0,0,1,2.51,1.06,4.72,4.72,0,0,1,.869,3.062Z" transform="translate(183.37 37)"/></g></svg>